<svg width="224" height="26" viewBox="0 0 224 26" fill="none" xmlns="http://www.w3.org/2000/svg">
    <path d="M221.235 9.09338L221.3 9.09343L221.17 9.02832L221.235 9.09338Z" fill="#F3F3F3"/>
    <path d="M219.869 9.09261C220.129 9.41785 221.949 10.4594 220.843 10.3935C219.348 10.0023 219.803 9.80763 219.218 9.35212C219.543 10.0024 217.072 9.1554 217.006 9.87042L218.372 10.1965C218.307 10.2615 217.786 10.2611 218.111 10.4564C218.372 10.1965 219.738 10.3927 220.583 11.1734C221.753 11.3694 221.754 10.0692 221.235 9.15871C221.105 9.22361 221.039 9.35357 219.869 9.09261Z" fill="#F3F3F3"/>
    <path d="M223.381 10.0054L223.185 10.0053L223.641 10.1357C223.186 9.87527 222.926 9.61503 222.406 9.09455C221.625 8.96391 221.365 9.02872 221.235 9.09362L223.381 10.0054Z" fill="#F3F3F3"/>
    <path d="M221.105 8.76803L221.561 8.50836L220.26 8.57234L221.105 8.76803Z" fill="#F3F3F3"/>
    <path d="M219.154 7.59676L218.439 7.59619L218.894 7.92161L219.154 7.59676Z" fill="#F3F3F3"/>
    <path d="M111.107 12.9059L111.237 12.776C111.042 12.7759 110.977 12.8408 111.107 12.9059Z" fill="#F3F3F3"/>
    <path d="M174.015 3.20515L174.275 3.59541C174.991 3.53098 175.511 3.6614 175.966 3.79178C175.056 3.336 173.886 2.74999 174.015 3.20515Z" fill="#F3F3F3"/>
    <path d="M143.893 10.3966L144.088 10.5268L144.739 10.2673C144.478 10.3321 144.218 10.3319 143.893 10.3966Z" fill="#F3F3F3"/>
    <path d="M142.201 11.5654C142.396 11.6306 142.721 11.7609 143.111 11.8912C142.851 11.761 142.526 11.6957 142.201 11.5654Z" fill="#F3F3F3"/>
    <path d="M89.2568 5.99754C89.0615 6.19241 88.8663 6.32228 88.671 6.45214C88.8011 6.45225 88.9964 6.25737 89.2568 5.99754Z" fill="#F3F3F3"/>
    <path d="M195.026 2.31173C194.376 2.1162 193.856 1.98578 193.4 1.92041C194.181 2.18105 194.766 2.57154 195.026 2.31173Z" fill="#F3F3F3"/>
    <path d="M109.81 8.4843C109.419 8.48399 109.289 8.54888 109.289 8.61388C109.614 8.61413 109.81 8.6143 109.81 8.4843Z" fill="#F3F3F3"/>
    <path d="M191.514 1.65882C191.644 1.72394 191.709 1.724 191.839 1.78911C192.295 1.78947 192.815 1.78988 193.4 1.92037C192.815 1.65985 192.23 1.46436 191.514 1.65882Z" fill="#F3F3F3"/>
    <path d="M28.8128 25.1921C28.7478 25.192 28.6827 25.192 28.5526 25.2569C28.6176 25.257 28.6827 25.192 28.8128 25.1921Z" fill="#F3F3F3"/>
    <path d="M210.702 3.36447C211.352 3.43001 210.832 3.29956 210.702 3.36447V3.36447Z" fill="#F3F3F3"/>
    <path d="M211.612 3.69029C211.417 3.56011 211.157 3.4949 210.897 3.42969C210.962 3.49475 211.157 3.55991 211.612 3.69029Z" fill="#F3F3F3"/>
    <path d="M211.547 3.49512L212.068 3.69055C212.198 3.62565 212.068 3.56053 211.547 3.49512Z" fill="#F3F3F3"/>
    <path d="M209.921 3.2334C210.246 3.29867 210.572 3.36395 210.832 3.42917C210.702 3.36405 210.702 3.36405 210.702 3.36405L209.921 3.2334Z" fill="#F3F3F3"/>
    <path d="M57.7701 10.8486L57.6401 10.7835C57.0547 10.783 57.3148 10.8482 57.7701 10.8486Z" fill="#F3F3F3"/>
    <path d="M163.212 9.6325L163.278 9.56743L163.212 9.6325Z" fill="#F3F3F3"/>
    <path d="M161.911 10.5413C162.237 9.82644 162.692 9.69677 163.212 9.63218L162.042 8.85118C161.977 9.43619 161.911 9.95619 161.911 10.5413Z" fill="#F3F3F3"/>
    <path d="M214.08 8.30745L213.43 8.04688L214.08 8.30745Z" fill="#F3F3F3"/>
    <path d="M0.843646 23.9348C0.778565 23.8696 0.778564 23.8696 0.778564 23.8696C0.843646 23.9348 0.843646 23.9348 0.843646 23.9348Z" fill="#F3F3F3"/>
    <path d="M1.03861 24.1302C0.973619 24.0652 0.973619 24.0652 0.973619 24.0652C0.908623 24.0001 0.908623 24.0001 0.843628 23.9351C0.843628 23.9351 0.843628 23.9351 0.908675 23.9351C0.908675 23.9351 0.908675 23.9351 0.97367 24.0002C0.973619 24.0652 0.973619 24.0652 1.03861 24.1302C1.03867 24.0652 1.03861 24.1302 1.03861 24.1302C1.03861 24.1302 1.03867 24.0652 1.03861 24.1302Z" fill="#F3F3F3"/>
    <path d="M183.508 8.47827L183.378 8.60819L183.443 8.67323L183.573 8.47832L183.768 8.34846L183.638 8.34835L183.508 8.47827Z" fill="#F3F3F3"/>
    <path d="M183.768 8.34883L183.833 8.34888L184.029 8.15402L183.898 8.21893L183.768 8.34883Z" fill="#F3F3F3"/>
    <path d="M42.7466 7.91124L43.0069 7.78146L42.7467 7.78125C42.7467 7.84625 42.7466 7.91124 42.7466 7.91124Z" fill="#F3F3F3"/>
    <path d="M43.8529 7.32717L43.8532 7.00214C43.8533 6.87212 43.8533 6.80712 43.8534 6.74211C43.4628 7.13184 43.3976 7.32681 43.3322 7.7168L44.048 7.45735C43.9829 7.4573 43.9179 7.45724 43.8529 7.39218C43.918 7.32723 43.918 7.32722 43.8529 7.32717Z" fill="#F3F3F3"/>
    <path d="M183.964 8.15396L183.768 8.15381L183.768 8.21882L183.898 8.21892L183.964 8.15396Z" fill="#F3F3F3"/>
    <path d="M214.016 7.33226L214.081 7.26731L214.081 7.2023C214.016 7.26725 213.951 7.33219 213.886 7.39714L214.016 7.33226Z" fill="#F3F3F3"/>
    <path d="M214.732 6.4229L214.667 6.48797L214.732 6.4229Z" fill="#F3F3F3"/>
    <path d="M187.612 1.39563L182.994 0.15681L182.604 0.481538C182.083 0.936177 181.757 1.71601 181.431 2.43083C181.236 2.82073 181.171 3.01568 180.715 3.79541C180.389 4.38022 180.259 4.96519 180.193 5.4852C180.128 5.48515 180.063 5.55011 179.933 5.55C179.543 5.28966 179.153 5.02931 178.763 4.76897C177.982 4.63833 177.527 4.44296 177.072 4.24757C177.137 4.24762 177.202 4.24767 177.267 4.24773C177.202 4.24767 177.072 4.18256 176.942 4.18246C176.682 4.05223 176.357 3.92195 176.031 3.79168C176.292 3.9219 176.552 4.05213 176.812 4.11734C176.291 3.98691 175.446 3.92124 174.665 3.98563L174.34 3.53031L174.145 3.53015C173.365 3.33451 173.56 3.72472 173.885 4.05002C173.494 4.11471 173.169 4.17946 172.909 4.30927C172.259 3.59366 171.022 4.6328 170.177 3.98205C169.721 4.37174 166.729 4.82441 166.663 5.66946C166.598 5.6044 166.403 5.60423 166.728 5.47448C165.948 5.53886 165.167 5.66825 164.646 6.05788L164.126 5.66744C163.736 6.05717 163.28 6.44685 162.89 6.83658C161.784 6.8357 161.328 6.83534 162.044 6.12082C160.157 7.54949 160.353 7.02959 158.985 8.45867L158.856 8.13353C158.205 8.45805 157.554 9.36763 157.033 9.36722C156.318 9.49666 155.016 10.1457 153.779 11.3149C153.128 11.8994 152.477 12.679 151.891 13.4586C151.826 13.4586 151.826 13.3936 151.761 13.3935C151.696 14.0435 151.306 13.5882 151.111 13.588C151.046 13.5879 150.981 13.5879 150.85 13.6528C150.785 13.6528 150.72 13.6527 150.59 13.7826C150.851 13.4578 151.046 13.1329 151.241 13.1981C151.111 12.9379 151.176 12.6779 151.112 12.3529C150.852 11.5726 150.267 10.792 149.227 10.4011C149.162 10.011 150.007 10.5968 149.942 10.2717C149.682 10.1415 149.032 9.81591 148.837 9.55572C148.707 9.29559 149.358 9.62115 149.878 9.88159C148.513 8.84038 147.537 8.8396 147.016 8.9042C146.431 9.03375 146.17 9.35856 145.975 9.61844C144.935 8.96753 144.219 8.96697 143.308 9.35629C142.918 9.09595 142.268 8.8354 143.764 8.8366C143.374 8.77128 142.073 8.64021 140.967 8.63933C139.861 8.63845 138.821 8.76765 138.82 9.09269C138.56 8.96246 137.78 9.15687 137.584 9.22172L135.893 9.35038L135.242 9.41487L134.852 9.41456C134.722 9.08942 134.657 9.99949 134.461 10.1944L134.526 10.1944L134.722 9.60948C134.657 9.86945 134.591 10.0644 134.591 10.2594L134.396 10.2593C134.136 10.3241 133.681 10.1937 133.551 10.0636C133.29 10.1934 132.835 10.2581 132.185 10.3225L132.054 10.3875L132.054 10.3224C130.818 10.6465 130.558 10.7113 130.363 10.8412C130.103 10.971 129.842 11.1008 128.476 10.9697L128.671 11.3599C128.54 12.3349 126.135 11.0328 124.508 11.2915L125.093 11.552C124.117 11.8763 122.623 10.1849 121.777 9.98922C121.582 9.92405 122.103 9.92448 122.363 9.85968C120.087 9.14278 121.972 10.3794 120.216 10.313C119.956 9.98777 120.737 9.59835 119.566 9.40239C119.046 9.07694 115.923 9.91955 114.428 9.07326C114.753 9.33355 115.013 9.65879 114.167 9.65812C112.866 9.52707 110.916 8.22536 109.549 8.74434C109.419 8.67923 109.354 8.61417 109.354 8.54917C108.249 8.61329 106.167 8.22159 104.866 8.80562C104.801 8.74056 104.606 8.7404 104.346 8.74019L105.061 8.67575C104.541 8.09027 103.045 8.1541 101.679 8.21802C100.313 8.21693 99.1423 8.216 99.338 7.56608C98.4274 7.43533 97.4519 7.23952 96.6715 7.04388L96.8017 6.91398C95.3061 6.32772 94.8507 6.39235 94.2003 6.32682C94.0704 6.06669 94.3305 6.13191 94.3956 6.06695C94.2006 5.87177 94.2008 5.67676 94.1358 5.6117C94.1358 5.54669 94.0707 5.61164 94.2009 5.48173L94.4614 5.09189C94.5917 4.83196 94.7871 4.50709 94.9174 4.31217C95.5037 3.20751 96.155 2.16789 96.546 1.2581C95.7653 1.38749 95.1147 1.51699 94.9196 1.51683L95.7007 0.802363C95.1802 1.06198 93.8791 1.19097 91.9275 1.38444C90.9517 1.51368 89.8458 1.6428 88.7399 1.77194C88.2195 1.83653 87.569 1.90103 87.1786 1.96573C86.8534 2.03048 86.463 2.09517 86.1377 2.22492C86.1377 2.15992 86.2028 2.09497 86.398 2.03012C83.3401 2.87278 78.7229 1.50394 77.7458 3.19336L75.7289 3.77682C78.461 3.64898 75.4031 4.49164 76.5738 4.68759C75.5329 4.88179 73.7769 4.49036 75.013 4.29632L75.2081 4.36147C75.534 3.45162 71.7605 4.42374 71.761 3.83867C69.4191 4.16184 67.0772 4.355 64.6701 4.80814C63.4991 5.06723 62.263 5.32629 60.9616 5.84531C60.3109 6.10482 59.6602 6.42933 59.0093 6.94887C58.6839 7.20865 58.3583 7.59844 58.1629 7.98833C57.7075 7.98796 57.2521 8.11763 57.2521 8.18264C55.1713 7.27087 58.4233 7.72852 57.7729 7.53298L56.8624 7.33722L57.0575 7.46739C56.2119 7.46672 56.0165 7.72658 54.6509 7.27044C53.8056 6.87972 54.3911 6.75017 54.066 6.6199C54.066 6.55489 54.001 6.55485 53.5458 6.42447L51.5299 5.70778L52.1147 6.42333C51.074 6.35749 50.2289 5.77174 50.8787 6.61736C50.4888 6.162 49.4484 5.64112 48.0828 5.18498C47.5626 4.98954 46.9773 4.85905 46.392 4.66356L46.0018 4.53324L45.9368 4.53319C45.5465 4.46787 45.1564 4.33755 44.7011 4.27218C44.4409 4.27197 44.2458 4.20681 43.5953 4.2713C43.4652 4.2712 43.4652 4.27118 43.3351 4.33608C43.2049 4.40099 43.0097 4.46585 42.8796 4.53076C42.6193 4.66057 42.2938 4.98533 42.1634 5.31027C41.7729 5.63499 41.4475 5.82977 41.2523 5.89463C40.7964 6.60935 40.2755 7.25901 39.6246 7.84356L39.104 8.03816C39.0389 8.16813 38.9737 8.2981 38.7784 8.49296C38.6485 8.36285 38.5834 8.36278 38.4534 8.29767L37.4774 8.68694C36.8264 9.27149 31.167 9.72204 30.3211 9.9814C31.4273 9.52723 28.4974 13.0353 30.1893 12.1916C29.5381 13.0361 29.669 12.0611 28.9531 12.5806C28.1708 14.7903 30.7705 17.5227 28.8828 19.1463C28.9478 19.2764 29.5333 19.1469 29.2726 19.7317C28.6221 19.7962 28.0366 19.8608 27.4512 19.8603C27.0607 20.12 27.5805 20.9005 26.2797 20.7044C26.4748 20.7696 26.7999 20.8999 26.4095 21.0296C21.5304 21.8058 15.2864 21.1507 9.95424 19.0012L9.23748 20.5609C9.23748 20.5609 9.17243 20.5608 9.17249 20.4958C9.04249 20.3657 8.71747 20.1054 8.45754 19.7802L8.06762 19.3248L8.00257 19.3247L7.4171 19.3893C6.96172 19.4539 6.50639 19.4536 5.98596 19.5182C6.96161 19.5839 6.37603 19.7785 5.72546 19.908C6.18084 19.8433 5.85524 20.2981 6.05028 20.4283C5.07452 20.4925 4.03377 20.4917 3.05807 20.4909C2.92771 20.8159 2.147 21.0103 1.43137 21.1397L0.975994 21.2044L0.910947 21.2043C0.910947 21.2043 0.910947 21.2043 0.910844 21.3343L0.910947 21.2043C0.910896 21.2693 0.910792 21.3993 0.975787 21.4644L0.975891 21.3344L0.975787 21.4644L0.975632 21.6594C0.975632 21.6594 0.975632 21.6594 0.97558 21.7244C0.910533 21.7244 0.845486 21.7243 0.845486 21.7243L0.845383 21.8543L0.910378 21.9194L0.975425 21.9194C0.975166 22.2445 0.974959 22.5045 0.974907 22.5695C0.974907 22.5695 0.974907 22.5695 0.974959 22.5045L0.97501 22.4395L0.974959 22.5045C1.04016 22.3095 1.17046 22.0496 1.49533 22.5049C2.14555 22.8305 2.99095 23.0912 2.99064 23.4812C4.16226 22.507 6.95825 23.8094 8.911 22.1208C9.49643 22.1213 8.58546 22.5106 8.97564 22.6409C9.10589 22.446 9.30113 22.3161 9.56142 22.1863L9.69157 22.1214C9.75661 22.1215 9.75661 22.1215 9.82161 22.1865L9.62642 22.2514C13.2033 23.0993 14.5687 23.8805 18.8611 24.729L18.6013 24.2738C19.5119 24.4045 19.7068 24.5997 20.1621 24.7301C21.3333 24.2109 17.5604 24.4679 18.6017 23.8187C19.1216 24.3392 20.7477 24.4705 22.4389 24.4718C24.1301 24.4732 25.7565 24.2795 26.3416 24.605C27.903 24.2812 25.7565 24.2795 27.2529 23.8906L27.7731 24.021L27.9686 23.5661C28.9445 23.3069 29.595 23.3074 29.79 23.5026C29.5298 23.5674 29.1392 23.8921 28.879 23.9569C29.5946 23.8275 30.5056 23.3731 31.2215 22.9186C31.9374 22.4642 32.3931 21.9445 32.5883 21.8796C32.1978 22.1393 31.7423 22.399 31.2868 22.5937C34.7363 20.1261 36.8856 16.6824 37.9285 13.9529L37.6031 14.0827C38.4504 12.0031 38.7751 12.6534 40.0777 10.5742L40.0777 10.6392C40.1431 10.1192 40.4688 9.59944 40.9245 9.07974C40.7289 9.66465 42.1609 8.49564 41.9001 9.21052C43.1375 7.32628 42.4864 8.10586 42.8778 6.74101L44.0487 6.74195C44.0487 6.67694 44.0488 6.54693 44.0489 6.48192C44.049 6.2869 43.9841 6.15682 43.9842 6.02681L42.8779 6.676L42.7477 6.74091L43.9842 6.02681L44.635 5.63727L44.8952 5.50748L44.5042 6.41727L46.2618 4.85849L46.3919 4.79358L45.0891 7.06781L45.024 7.19778L44.3083 7.45724C44.4383 7.52235 44.6335 7.5225 44.8285 7.58766C45.3488 7.71809 45.8041 7.78347 46.2594 7.78383C47.17 7.91457 47.8854 8.04515 48.2752 8.69554C50.0318 8.24189 45.9995 7.45859 46.845 7.52427C46.325 7.0688 48.2113 7.20031 49.1216 7.59108C50.032 7.91684 50.1612 9.15209 52.5022 9.93405C52.2421 9.86884 52.242 9.93384 51.9819 9.86862C52.7621 10.3893 53.8681 10.1302 54.7782 10.781C55.6241 10.4566 56.2089 11.2372 56.7297 10.6525L54.4534 10.1956C55.4941 10.3265 56.4699 10.1972 57.8357 10.3934L57.8355 10.7184L58.291 10.4587C58.2259 10.4587 58.2259 10.4587 58.291 10.4587C58.6162 10.524 59.0064 10.6543 59.3965 10.7847C59.1362 10.9145 58.4207 10.9789 57.9003 10.9785C58.2254 11.1738 58.5506 11.174 58.8758 11.2393C59.2661 11.2396 59.5262 11.3048 60.3718 11.3705C60.2415 11.5654 59.7861 11.6951 59.3308 11.6947C58.8754 11.6943 58.4202 11.629 57.9649 11.5636C57.0544 11.3678 56.0789 11.107 55.2332 11.1714C55.7532 11.6268 58.0951 11.4337 57.119 11.953C57.7046 11.6934 58.2249 11.7588 59.0054 11.8895C59.2005 11.9546 59.3956 11.9548 59.7208 12.0201C60.046 12.0203 60.3062 12.0855 61.1519 11.8912C61.5423 11.7615 62.3231 11.4371 62.6489 10.7222C62.7792 10.4623 62.8445 10.1373 62.7797 9.87722C62.7798 9.81222 62.7798 9.81223 62.7798 9.74722C63.0399 9.87744 62.9098 9.81233 62.9099 9.74732C62.91 9.68232 62.91 9.68231 62.975 9.68236C63.1051 9.61746 63.3003 9.61761 63.4955 9.55276C63.9509 9.48811 64.4712 9.48852 64.8617 9.2288C62.9748 9.94239 64.1465 8.9032 63.1707 8.96743C64.2121 8.18817 64.8624 8.3837 65.4477 8.57919C66.0329 8.77468 66.6182 8.97018 68.0495 8.64628C67.464 8.71082 66.5534 8.64509 67.139 8.38553C67.8546 8.32109 68.7653 8.32182 69.2204 8.51721C71.5625 8.06402 68.7654 8.12679 69.7414 7.73752C70.6518 8.12829 70.8476 7.34836 71.9536 7.08921L72.0183 7.47931C74.8804 7.41658 72.6045 6.50466 75.2063 6.57174L74.23 7.28603L75.5312 7.02704L75.3356 7.54696C76.702 7.02799 77.1573 7.09335 78.6534 7.09454C78.2633 6.8342 78.7191 6.31451 80.0201 6.18553C80.9306 6.38127 79.5644 6.64021 81.3859 6.44664C80.9954 6.77137 80.6048 7.0961 79.7595 6.77038C79.6943 6.90035 79.3689 7.09512 79.3038 7.22508C80.2793 7.42088 81.6456 7.09692 82.2961 7.03243C82.0359 7.03222 81.7107 7.03196 81.5806 6.96685L84.1181 6.12378C84.5733 6.25416 84.248 6.38392 83.9226 6.57868C84.443 6.51409 84.7685 6.25431 85.5492 6.12492C85.4188 6.51486 85.4835 6.83995 84.3775 7.0991L86.8498 6.516C87.0448 6.64617 88.2156 6.77711 87.8902 6.97187L88.1504 6.97208C88.1504 6.97208 88.1504 6.97208 88.2154 6.97213C88.2154 6.97213 88.2805 6.9722 88.3456 6.90724C88.4107 6.84229 88.5408 6.77737 88.671 6.64746C88.9313 6.45264 89.4519 6.19303 89.5169 6.32309C89.647 6.25819 89.7772 6.12828 89.9724 6.06343C89.8422 6.19334 89.6469 6.45321 89.5166 6.64813C89.3864 6.77804 89.3212 6.97302 89.3212 7.03802C89.3211 7.10303 89.3862 7.1031 89.4511 7.23316C89.7109 7.68842 90.0358 8.07872 90.4259 8.40407C90.6205 8.98929 90.8803 9.50956 91.2051 10.0299C92.3105 10.6158 91.9206 10.1605 91.7908 9.77032C91.661 9.38017 91.7261 9.2502 93.2868 9.90152C95.4978 10.5534 93.8065 10.682 94.4566 11.1376C95.7575 11.2037 97.644 11.0101 99.3346 11.7916C98.6841 11.7911 98.2289 11.6607 97.6436 11.5952L99.0091 12.1813C97.1225 12.4399 95.822 11.9188 97.1223 12.6999C97.4479 12.1801 98.8138 12.3762 100.245 12.5074C101.611 12.6385 102.976 12.7696 103.172 12.1847L104.017 12.5104C103.757 12.5102 103.692 12.5101 103.432 12.5099C104.147 12.7705 104.473 12.7058 104.798 12.576L105.514 12.2515L106.034 11.9919C106.229 11.9921 106.49 11.9923 106.815 12.0576C107.53 12.2531 107.985 12.5135 107.465 12.5781L109.156 12.5795C109.611 12.7099 109.481 12.8398 108.961 12.7744L111.497 13.1014C111.888 12.9717 112.799 12.8424 113.254 12.7778C113.839 13.0383 112.929 12.8425 112.994 13.0376L114.49 12.9738C115.01 13.3642 113.709 13.4932 112.733 13.2974C113.773 14.6634 113.969 13.2334 116.765 14.3407L115.334 14.2746C116.049 15.0553 117.22 14.9912 118.716 15.5774C118.326 15.3171 115.79 14.0799 117.416 14.0162C117.806 14.1466 118.391 14.277 119.302 14.1477C119.237 14.6027 120.082 14.5384 121.188 14.6693L121.058 15.1893C122.229 15.1252 122.164 14.8001 122.879 14.6056C124.18 14.7367 124.44 15.192 124.765 15.5173C126.977 15.649 123.27 14.801 125.871 14.7381C127.693 14.9345 128.994 14.6755 131.206 13.8322C132.637 13.6383 131.076 14.2221 131.661 14.2226C131.987 13.9628 132.377 13.7031 132.702 13.4433C133.028 13.3786 132.963 13.5085 132.963 13.5735C133.744 13.0541 133.028 12.9885 133.679 12.469C133.744 12.404 133.744 12.339 133.809 12.2741C133.744 12.079 133.874 12.0141 134.07 11.9492C134.135 11.9493 134.265 11.8194 134.33 12.0145C134.46 12.1446 134.59 12.2097 134.72 12.2098C134.85 12.3399 135.63 12.4055 136.021 12.3408C136.476 12.3412 136.931 12.2766 137.322 12.0168C137.777 12.1472 137.192 12.4068 137.321 12.6019C139.534 11.9536 139.143 12.0833 140.9 11.3696C141.42 11.5 141.941 11.6305 142.396 11.7609C141.355 11.305 142.722 10.786 144.088 10.592C143.698 10.3317 143.373 10.1364 143.113 10.0062C143.828 9.94177 144.609 9.94239 145.389 10.008C145.649 10.1382 145.324 10.268 144.934 10.4627L145.389 10.3981C146.039 10.7886 145.519 10.9833 144.933 11.1778C144.738 11.0476 144.543 10.8525 144.348 10.7223C143.762 10.9818 143.307 11.3065 143.306 11.6966C143.437 11.6317 143.697 11.6319 143.957 11.6321C143.827 11.697 143.762 11.7619 143.762 11.827C143.827 11.892 144.022 11.8272 144.347 11.6974C144.412 11.9575 144.477 12.1526 144.542 12.3476L144.737 12.1528C145.387 12.4133 145.842 12.8037 146.037 13.1289C146.298 13.1291 146.558 13.1943 146.883 13.2596C147.208 13.3899 147.468 13.4551 147.793 13.9104C148.053 14.3006 148.248 14.7559 148.442 15.1461C148.507 15.3411 148.572 15.5362 148.637 15.7313L148.702 15.8614C148.767 15.8614 148.832 15.7964 148.897 15.7965C149.027 15.7316 149.223 15.7318 149.418 15.6669C149.873 15.5373 150.329 15.4076 150.719 15.4079C150.133 15.6675 149.743 15.9922 149.612 16.2521C149.482 16.5121 149.482 16.7721 149.156 17.0969C148.896 16.9666 148.441 17.0313 147.855 17.1608C147.725 17.0307 147.53 17.0306 147.4 16.9655L147.271 16.1853C147.141 15.6001 147.077 14.8849 147.077 14.1699C147.076 15.21 146.686 15.2097 146.621 14.9496L146.88 16.64L147.01 17.3552C147.14 17.4203 147.335 17.4855 147.53 17.6156L147.855 17.4859C147.009 18.2003 148.701 17.6166 150.132 17.5527C150.002 17.4226 150.132 17.2276 150.327 17.0978C150.457 17.0329 150.588 16.903 150.783 16.7731C150.913 16.7082 150.913 16.7082 150.913 16.7082C151.108 16.7084 151.368 16.8386 151.628 17.1638L153.708 19.3108L154.229 18.206L154.296 16.6459C154.296 16.3859 154.296 16.1258 154.296 15.9308C154.621 15.9311 154.881 16.1913 154.816 16.7113L154.75 17.1663L154.946 16.7114C155.207 16.1916 153.841 15.4104 154.947 14.7612C154.817 14.9561 154.687 15.086 154.817 15.2161C154.752 14.566 156.054 13.5269 156.054 13.982L155.859 14.1768C156.51 13.5273 157.551 12.618 158.592 11.8388C159.634 11.0595 160.48 10.3451 160.415 10.02C160.48 10.085 160.74 10.9304 160.74 11.0604C161.261 9.82564 161.978 8.52607 162.824 7.29159C162.824 8.00668 164.839 8.91839 163.342 9.89231C163.863 9.82772 164.448 9.69817 165.359 9.17883C164.969 9.17852 164.059 8.59272 164.514 8.39806C166.14 8.65938 165.555 8.46389 167.376 8.66036C166.791 8.6599 166.987 7.55492 167.898 7.36063C167.833 7.5556 168.287 8.33606 168.027 8.46587C168.548 8.01123 169.199 7.55669 169.784 7.1021C169.329 7.36177 169.914 7.94731 170.369 8.14269C170.109 7.94746 172.06 7.94902 172.581 7.88443L171.735 7.68872C172.841 7.6896 173.362 7.36498 174.012 7.04046C174.598 6.71588 175.249 6.39138 176.485 6.6524C176.094 6.7821 175.508 7.69173 176.353 8.08245C176.549 7.95259 177.004 7.69293 177.59 7.56338C177.459 7.82331 177.329 8.08323 177.264 8.47322C177.199 8.47317 177.134 8.47312 177.068 8.47307C177.198 8.66819 177.198 8.7332 177.198 8.79821C177.198 8.92823 177.198 9.12324 177.263 9.31831C177.068 9.31816 176.873 9.25301 176.743 9.1879C177.068 9.44819 177.133 9.64325 177.197 10.0334L177.458 9.90355C177.588 10.0987 177.718 10.2938 177.912 10.489C178.172 10.7492 178.498 10.9445 178.888 11.1398C179.148 11.2701 179.408 11.3353 179.668 11.4005L180.644 10.8162L179.994 10.4256C179.799 10.2955 179.669 10.2303 179.474 10.0352C179.279 9.97 179.084 9.83983 178.954 9.6447L179.54 9.25514C179.735 9.45031 180.06 9.45056 180.255 9.45072C180.385 9.51583 180.45 9.5809 180.58 9.581C180.905 9.71128 181.231 9.71152 181.491 9.71173L181.23 10.4266L183.182 9.25804C183.508 8.99826 183.443 9.0632 183.508 8.99825L183.573 8.93331L183.508 8.99825L183.443 9.06321C183.443 9.06321 183.312 9.12812 183.182 9.25804L183.182 9.19303C183.443 8.99821 183.378 8.99815 183.443 8.9982L183.508 8.93326L182.987 8.80282L182.922 8.73776L183.768 8.67342L183.898 8.54352L182.858 8.6077C182.858 8.6077 182.858 8.6077 182.858 8.54269L183.963 8.47856L184.029 8.4136C184.094 8.41365 184.159 8.4137 184.159 8.4137L184.094 8.47866L184.159 8.47871L184.224 8.41375C184.419 8.41391 184.549 8.41402 184.679 8.47913L185.395 8.41469C185.33 8.41464 185.33 8.41464 185.264 8.47959L184.744 8.47918C184.874 8.47928 184.939 8.54435 185.069 8.54445L185.199 8.60957L186.63 8.54569C186.566 8.1556 186.501 7.7655 186.371 7.31035L185.916 7.43999C185.851 7.30992 185.851 7.1799 185.786 7.11484L186.958 6.07565L186.762 6.07549L185.721 7.04978C185.721 6.98477 185.656 6.91972 185.656 6.85471L186.372 6.07518L185.331 6.00936C185.527 5.94451 185.657 6.13963 185.852 5.94477L185.331 5.94435C185.331 5.94435 185.331 5.94435 185.332 5.87934L185.917 5.87981C185.917 5.8148 185.982 5.74985 186.047 5.6849C185.462 5.29438 187.285 3.73565 185.722 5.03456C186.048 4.12471 186.439 4.06 186.83 3.1502C187.545 3.67083 188.325 3.93149 189.041 4.19209C189.951 4.45285 190.796 4.71355 191.967 4.8445C192.162 5.03968 193.268 5.30059 192.682 5.49514C193.007 5.4304 193.398 5.23569 194.113 5.30127C195.414 5.95238 192.487 5.23497 193.462 5.95083C193.593 5.62589 195.414 5.62733 196.455 5.49815C196.195 4.91287 194.113 5.23626 193.073 5.30044C193.203 4.58546 195.025 4.00183 197.432 3.80872C199.318 3.74522 198.212 4.32941 198.537 4.26466C202.115 4.65756 201.726 3.16207 204.652 3.87948C205.757 4.46543 204.586 4.78954 204.846 5.17979C203.285 5.24356 202.505 4.72288 201.464 4.65705L202.765 4.98312C202.244 5.11272 201.204 5.1769 200.683 4.98146C201.594 5.50225 206.732 5.37632 209.334 6.22349C209.854 6.1589 210.7 6.15957 210.375 5.89928L209.464 5.83355C208.749 5.31292 211.286 5.57497 210.18 5.24905C210.83 5.24957 211.481 5.18508 212.326 5.31577C213.107 5.44641 214.148 5.57725 214.992 6.81306L214.862 6.94298L214.797 7.00794L214.732 7.07288L214.667 7.20285L214.602 7.26782L214.667 7.13784C214.667 7.13784 214.667 7.13785 214.667 7.20285L214.732 7.07288L214.797 7.00794L214.927 6.87802C214.862 6.94298 214.797 7.00793 214.797 7.07294L214.667 7.26787C214.667 7.07284 214.537 6.87772 214.342 6.68254C214.147 6.42236 213.887 6.29212 213.627 6.1619C213.887 6.29212 214.212 6.61743 214.472 7.00768C214.537 7.13775 214.537 7.26775 214.601 7.39782L214.146 7.98254C214.015 8.17746 213.885 8.37237 213.69 8.50223C213.885 8.37237 214.015 8.17744 214.081 8.04748L214.015 8.17745C213.95 8.30742 213.82 8.43733 213.69 8.56724C213.82 8.50234 213.885 8.37237 214.015 8.24246L214.015 8.17745L214.081 8.11249L214.146 8.11254C214.211 8.1126 214.276 8.11265 214.341 8.1127C214.406 8.11275 214.471 8.1128 214.536 8.11285C214.471 8.37283 214.405 8.63282 214.275 8.82774L213.56 8.56714L214.275 8.82774L214.73 8.95812L214.275 8.82774L214.665 8.95807L215.25 9.28357L215.251 9.15355L215.966 9.41415L216.291 9.54443L215.966 9.41415C216.096 9.08921 216.161 8.89425 216.096 8.82919C216.031 8.76413 215.901 8.89404 215.576 9.21882C215.771 9.08896 215.966 8.8941 216.032 8.63412C216.227 8.69928 216.422 8.76444 216.682 8.82965C216.551 9.15459 216.421 9.34951 216.291 9.54443L216.486 9.6096C216.682 9.1547 216.877 8.50477 216.813 7.85464C217.203 7.98497 217.528 8.11525 217.853 8.31053C217.593 7.59524 217.528 8.24526 216.943 7.33469C217.073 7.65983 216.683 7.65951 216.228 7.46412L216.163 7.46407C216.098 7.00897 215.903 6.55376 215.643 6.22852C214.863 5.31779 214.018 4.92707 213.238 4.34138C213.238 4.53641 213.693 4.7968 212.197 4.27554C212.132 4.27549 211.937 4.34035 211.807 4.34024L211.742 4.34019L211.807 4.40526C211.742 4.4052 211.742 4.4052 211.807 4.40526C212.132 4.53553 212.392 4.73075 212.457 4.86081C211.546 4.9901 209.465 4.6634 208.749 4.79285C208.034 4.59726 209.075 4.66311 208.75 4.40282L207.644 4.59695C207.644 4.20691 205.758 3.75036 207.579 3.6868L205.953 3.49047C205.043 3.16471 203.742 3.03367 202.961 3.09806C202.246 2.96747 201.075 3.42158 201.726 3.16206L199.254 3.22511L199.254 3.1601C196.912 2.96321 194.31 3.48121 191.904 2.43917C191.189 2.4386 190.343 2.43793 189.367 2.0471L189.303 1.657C189.108 1.65685 188.913 1.59169 188.783 1.46157C188.587 1.39641 188.653 1.20143 188.522 1.33134C188.067 1.13596 187.742 1.33073 187.612 1.39563ZM0.779869 22.4394C0.779818 22.5044 0.779818 22.5044 0.779869 22.4394C0.844916 22.4394 0.844916 22.4394 0.779869 22.4394ZM0.84502 22.3094C0.844968 22.3744 0.844968 22.3744 0.844917 22.4394C0.844968 22.3744 0.84502 22.3094 0.845124 22.1794C0.845072 22.2444 0.84502 22.3094 0.84502 22.3094ZM0.845331 21.9193C0.845279 21.9843 0.845279 21.9843 0.845279 21.9843C0.845331 21.9193 0.845383 21.8543 0.845434 21.7893L0.845331 21.9193ZM0.845538 21.6593C0.84559 21.5943 0.84559 21.5943 0.845641 21.5293C0.845745 21.3993 0.845745 21.3993 0.845745 21.3993C0.845693 21.4643 0.84559 21.5943 0.845538 21.6593ZM43.8543 5.76668C43.8543 5.76668 43.7892 5.76662 43.8543 5.76668C43.7892 5.76662 43.7892 5.76662 43.7892 5.76662C43.7892 5.76662 43.7892 5.76662 43.8543 5.76668ZM44.0495 5.70182C43.9844 5.70177 43.9844 5.70177 43.9844 5.70177C43.9844 5.70177 43.9844 5.70177 43.9194 5.70172C43.9194 5.70172 43.9194 5.70172 43.8543 5.70166C43.8543 5.70166 43.8543 5.70166 43.9194 5.70172L43.9844 5.70177C44.0495 5.70182 44.0495 5.70182 44.0495 5.70182ZM44.4399 5.57213C44.3748 5.63708 44.3097 5.63701 44.2447 5.63696L44.3097 5.63701L44.2447 5.63696L44.1796 5.63691C44.1796 5.63691 44.1796 5.63691 44.1146 5.63686L44.1796 5.63691C44.1796 5.63691 44.1796 5.63691 44.2447 5.63696C44.1796 5.63691 44.1796 5.63692 44.1145 5.70187C44.1796 5.63692 44.3097 5.63703 44.4399 5.57213ZM53.6757 6.61959L53.9357 6.81483C53.1553 6.68419 53.4155 6.68439 53.6757 6.61959ZM62.5198 9.48699C62.5199 9.42198 62.5199 9.42198 62.5198 9.48699C62.5849 9.48704 62.7149 9.55215 62.5198 9.48699ZM62.1947 9.29169C62.1947 9.29169 62.1297 9.29164 61.9997 9.22652L62.1947 9.29169ZM117.221 13.691C116.831 13.7557 115.985 13.8851 115.725 13.6248C116.246 13.1702 116.571 13.4305 117.221 13.691ZM145.193 11.438C145.518 11.5033 145.843 11.6336 146.038 11.8938C145.778 11.8935 145.518 11.6983 145.193 11.438ZM180.58 9.19095C180.906 9.32123 181.166 9.32142 181.426 9.32163L181.426 9.38664C181.101 9.38638 180.71 9.25606 180.32 9.12573L180.385 9.12579C180.45 9.12584 180.515 9.1909 180.58 9.19095ZM178.629 9.1894L177.978 9.51392C177.913 9.44886 177.913 9.44885 177.848 9.38379L178.499 9.12428C178.499 9.18929 178.564 9.18935 178.629 9.1894ZM181.621 8.93176C181.556 8.9317 181.556 8.9317 181.621 8.93176C181.556 8.9317 181.556 8.9317 181.621 8.93176ZM179.345 8.79992L178.759 9.12449L178.694 9.05943L179.345 8.79992ZM180.516 8.4108C180.581 8.34585 180.581 8.28085 180.581 8.21584C180.581 8.28085 180.516 8.34579 180.516 8.4108ZM179.15 8.40971C178.955 8.34455 178.76 8.2794 178.565 8.21423C178.565 8.08422 178.63 7.95425 178.695 7.82429C178.76 7.62932 178.891 7.4344 179.021 7.23948C179.021 7.3695 179.021 7.4345 179.021 7.56452L179.021 7.69452L179.02 7.75953C179.02 7.75953 179.085 7.95461 179.15 8.14969C179.15 8.21469 179.15 8.2797 179.15 8.40971ZM179.086 7.49956L179.086 7.69457L179.086 7.75959C179.086 7.75959 179.085 7.8246 179.15 7.88966C179.15 7.95467 179.15 7.95466 179.15 8.01966C179.15 8.01966 179.15 8.08468 179.15 8.14969C179.085 8.01962 179.085 7.95461 179.02 7.82455C179.021 7.69453 179.021 7.62953 178.956 7.56447C178.956 7.49946 178.956 7.36945 178.956 7.30444L179.021 7.23948C179.086 7.30454 179.086 7.36954 179.086 7.49956ZM184.096 5.42329C184.096 5.42329 184.161 5.42335 184.161 5.48836L183.511 5.48784L183.315 5.48768C183.315 5.48768 183.315 5.42267 183.38 5.42272L184.096 5.42329ZM214.277 6.94252L214.081 7.13738L214.146 7.07242L214.081 7.13738C214.146 7.13743 214.211 7.07248 214.277 6.94252C214.342 7.13759 214.341 7.2676 214.341 7.46262L214.211 7.39751L214.081 7.2674C214.081 7.2674 214.081 7.20239 214.016 7.20234C214.016 7.20234 214.081 7.13739 213.951 7.2673L213.886 7.33226L213.821 7.3972L213.756 7.46216L214.277 6.94252ZM214.991 8.37324L214.666 8.438C214.796 8.30809 214.926 8.11317 215.056 7.91825C215.056 8.04827 214.991 8.17822 214.991 8.37324ZM216.618 7.33443C216.618 7.72448 216.617 8.04952 216.552 8.3095C216.487 8.30944 216.487 8.30944 216.422 8.24438C216.748 7.98461 216.487 7.85437 216.032 7.724C216.097 7.59403 216.163 7.46408 216.163 7.26906L216.163 7.20405C216.228 7.2041 216.423 7.26927 216.618 7.33443ZM214.407 6.94262C214.407 7.00763 214.407 7.00762 214.342 7.07257C214.407 7.00762 214.407 7.00763 214.407 6.94262ZM204.588 2.96933C203.677 2.77358 204.002 2.83885 204.588 2.96933V2.96933ZM186.44 1.97976C186.31 1.97966 186.245 2.10962 186.18 2.23958C185.985 1.9794 185.855 1.58924 185.726 1.19909L185.791 1.19914C185.985 1.58935 186.245 1.78458 186.44 1.97976Z" fill="#F3F3F3"/>
    <path d="M180.904 10.6864L181.165 10.1015L180.579 10.4911L180.904 10.6864Z" fill="#F3F3F3"/>
    <path d="M214.08 8.3075L213.365 8.04688L214.08 8.3075Z" fill="#F3F3F3"/>
    <path d="M186.437 5.49039L186.307 5.62032L186.633 5.62058L186.828 5.42569L185.722 5.4248C185.722 5.4248 185.722 5.42481 185.722 5.48982L186.437 5.49039Z" fill="#F3F3F3"/>
    <path d="M43.3972 7.78164C43.3972 7.71664 43.3972 7.71663 43.4623 7.65168L43.0719 7.78138L43.3972 7.78164Z" fill="#F3F3F3"/>
    <path d="M44.0486 6.67709L44.5689 6.6775C44.4388 6.6774 44.3088 6.6773 44.374 6.48233L44.4391 6.35236L44.3089 6.48228C44.1788 6.48218 44.1137 6.54712 44.0486 6.67709Z" fill="#F3F3F3"/>
    <path d="M43.9185 6.67676L43.9184 6.74188L43.9836 6.67681L43.9185 6.67676Z" fill="#F3F3F3"/>
    <path d="M143.176 11.6962C143.111 11.6312 143.046 11.5661 143.046 11.4361C142.981 11.566 142.916 11.631 143.176 11.6962Z" fill="#F3F3F3"/>
    <path d="M89.3869 5.93321L89.3219 5.93316L89.2568 5.99811L89.3869 5.93321Z" fill="#F3F3F3"/>
    <path d="M222.338 11.8895C222.534 11.8897 222.663 12.0198 222.859 12.02L222.924 11.825C222.274 11.5644 221.688 11.564 222.338 11.8895Z" fill="#F3F3F3"/>
    <path d="M216.682 8.37451C216.942 8.43973 217.137 8.56992 217.332 8.63508C217.528 8.50522 217.072 8.43983 216.682 8.37451Z" fill="#F3F3F3"/>
    <path d="M208.75 3.36295C209.141 3.49328 209.076 2.97318 209.271 3.10335C209.857 2.71377 206.539 3.29619 208.75 3.36295Z" fill="#F3F3F3"/>
    <path d="M210.96 5.50978C211.35 5.6401 211.741 5.77044 212.131 5.96577C212.131 5.90077 212.326 5.90092 212.521 5.96609C211.806 5.64047 210.96 5.37976 210.96 5.50978Z" fill="#F3F3F3"/>
    <path d="M212.586 6.03125C212.976 6.22658 213.301 6.42186 213.561 6.55208C213.366 6.3569 212.911 6.09652 212.586 6.03125Z" fill="#F3F3F3"/>
    <path d="M213.3 8.04679L213.43 7.91689C213.56 7.72198 213.561 7.46195 213.496 7.20187C213.495 7.5269 213.43 7.78687 213.3 8.04679L213.235 8.11175L213.3 8.17681L213.495 8.30699L213.365 8.17686L213.3 8.04679Z" fill="#F3F3F3"/>
    <path d="M197.301 4.13343L195.935 4.13235C195.805 4.26226 196.13 4.39256 196.651 4.39297C196.976 4.32822 197.496 4.32862 197.301 4.13343Z" fill="#F3F3F3"/>
    <path d="M201.398 5.63232C201.008 5.50199 201.008 5.43698 200.813 5.2418L200.683 5.76176L201.398 5.63232Z" fill="#F3F3F3"/>
    <path d="M197.04 5.88873C197.17 5.75881 198.601 5.69494 197.365 5.49892C197.17 5.62879 195.219 5.75726 197.04 5.88873Z" fill="#F3F3F3"/>
    <path d="M174.922 7.56136C174.077 7.69071 173.687 7.56037 174.011 8.14572C175.182 8.4717 174.402 7.62595 175.443 8.01683C175.833 7.95213 174.597 7.69112 174.922 7.56136Z" fill="#F3F3F3"/>
    <path d="M174.923 7.5611L175.378 7.49646C175.118 7.56125 174.988 7.56115 174.923 7.5611Z" fill="#F3F3F3"/>
    <path d="M1.42844 24.5848C1.29845 24.4547 1.16856 24.1946 1.10357 24.1295L1.16856 24.1946C1.10357 24.1295 1.10357 24.1295 1.03857 24.0645C1.10357 24.1295 1.10357 24.1295 1.16856 24.1946C1.29856 24.3247 1.42849 24.5198 1.49344 24.6499C1.55843 24.7149 1.62343 24.78 1.62332 24.91L2.01314 25.4954C1.8832 25.3003 1.75326 25.1051 1.62332 24.91L1.68842 24.845C1.75352 24.7801 1.75357 24.7151 1.75363 24.6501C1.62348 24.715 1.49333 24.7799 1.49333 24.7799C1.49328 24.8449 1.49328 24.8449 1.49333 24.7799C1.49333 24.7799 1.49344 24.6499 1.42844 24.5848Z" fill="#F3F3F3"/>
    <path d="M0.715088 21.9189L0.779668 22.5041C0.77972 22.4391 0.779772 22.3741 0.779824 22.3091L0.715088 21.9189Z" fill="#F3F3F3"/>
    <path d="M2.92403 25.3663L3.24979 24.7165C3.05459 24.7813 2.66416 24.976 2.40402 24.9108L2.92403 25.3663Z" fill="#F3F3F3"/>
    <path d="M120.017 15.1885L120.147 15.0586C120.017 14.8635 119.757 14.8633 119.236 14.7979L120.017 15.1885Z" fill="#F3F3F3"/>
    <path d="M105.904 12.5768L106.099 12.642L105.774 12.0566L105.904 12.5768Z" fill="#F3F3F3"/>
    <path d="M92.7653 11.0713C93.4156 11.3319 94.131 11.4625 94.7163 11.6579C93.3505 11.3318 92.961 10.4214 92.7653 11.0713Z" fill="#F3F3F3"/>
</svg>
